<svg width="19" height="18" viewBox="0 0 19 18" fill="none" xmlns="http://www.w3.org/2000/svg">
<path d="M9.5 0.53125C4.68359 0.53125 0.78125 4.46875 0.78125 9.25C0.78125 14.0664 4.68359 17.9688 9.5 17.9688C14.2812 17.9688 18.2188 14.0664 18.2188 9.25C18.2188 4.46875 14.2812 0.53125 9.5 0.53125ZM15.582 4.75L13.3672 6.96484C12.9805 6.33203 12.418 5.76953 11.7852 5.38281L14 3.16797C14.5977 3.625 15.125 4.15234 15.582 4.75ZM9.5 12.625C7.60156 12.625 6.125 11.1484 6.125 9.25C6.125 7.38672 7.60156 5.875 9.5 5.875C11.3633 5.875 12.875 7.38672 12.875 9.25C12.875 11.1484 11.3633 12.625 9.5 12.625ZM4.96484 3.16797L7.17969 5.38281C6.54688 5.76953 5.98438 6.33203 5.59766 6.96484L3.38281 4.75C3.83984 4.15234 4.36719 3.625 4.96484 3.16797ZM3.38281 13.7852L5.59766 11.5703C5.98438 12.2031 6.54688 12.7656 7.17969 13.1523L4.96484 15.3672C4.36719 14.9102 3.83984 14.3828 3.38281 13.7852ZM14 15.3672L11.7852 13.1523C12.418 12.7656 12.9805 12.2031 13.3672 11.5703L15.582 13.7852C15.125 14.3828 14.5977 14.9102 14 15.3672Z" fill="url(#paint0_linear_33_304)"/>
<defs>
<linearGradient id="paint0_linear_33_304" x1="2.1997" y1="1.00001" x2="20.151" y2="1.7619" gradientUnits="userSpaceOnUse">
<stop stop-color="#F8A170"/>
<stop offset="1" stop-color="#FFCD61"/>
</linearGradient>
</defs>
</svg>
