<svg width="21" height="17" viewBox="0 0 21 17" fill="none" xmlns="http://www.w3.org/2000/svg">
<path d="M0.375 14.4375C0.375 15.3867 1.11328 16.125 2.0625 16.125H18.9375C19.8516 16.125 20.625 15.3867 20.625 14.4375V8.25H0.375V14.4375ZM7.125 12.0469C7.125 11.8359 7.30078 11.625 7.54688 11.625H12.3281C12.5391 11.625 12.75 11.8359 12.75 12.0469V13.4531C12.75 13.6992 12.5391 13.875 12.3281 13.875H7.54688C7.30078 13.875 7.125 13.6992 7.125 13.4531V12.0469ZM2.625 12.0469C2.625 11.8359 2.80078 11.625 3.04688 11.625H5.57812C5.78906 11.625 6 11.8359 6 12.0469V13.4531C6 13.6992 5.78906 13.875 5.57812 13.875H3.04688C2.80078 13.875 2.625 13.6992 2.625 13.4531V12.0469ZM20.625 2.0625C20.625 1.14844 19.8516 0.375 18.9375 0.375H2.0625C1.11328 0.375 0.375 1.14844 0.375 2.0625V3.75H20.625V2.0625Z" fill="url(#paint0_linear_33_305)"/>
<defs>
<linearGradient id="paint0_linear_33_305" x1="3.1997" y1="8.97782e-06" x2="21.151" y2="0.761898" gradientUnits="userSpaceOnUse">
<stop stop-color="#F8A170"/>
<stop offset="1" stop-color="#FFCD61"/>
</linearGradient>
</defs>
</svg>
