<svg width="21" height="19" viewBox="0 0 21 19" fill="none" xmlns="http://www.w3.org/2000/svg">
<path d="M20.0625 8.125H19.0078C18.6914 7.42188 18.2344 6.82422 17.707 6.29688L18.375 3.625H17.25C16.1953 3.625 15.2812 4.11719 14.6836 4.85547C14.4023 4.82031 14.1211 4.75 13.875 4.75H9.375C6.63281 4.75 4.38281 6.68359 3.85547 9.25H2.34375C1.81641 9.25 1.39453 8.79297 1.5 8.26562C1.57031 7.84375 1.95703 7.5625 2.37891 7.5625H2.41406C2.51953 7.5625 2.625 7.49219 2.625 7.35156V6.64844C2.625 6.54297 2.51953 6.4375 2.41406 6.4375C1.39453 6.4375 0.515625 7.17578 0.375 8.16016C0.234375 9.35547 1.14844 10.375 2.34375 10.375H3.75C3.75 12.2383 4.62891 13.8555 6 14.875V17.6875C6 18.0039 6.24609 18.25 6.5625 18.25H8.8125C9.09375 18.25 9.375 18.0039 9.375 17.6875V16H13.875V17.6875C13.875 18.0039 14.1211 18.25 14.4375 18.25H16.6875C16.9688 18.25 17.25 18.0039 17.25 17.6875V14.875C17.6367 14.5586 18.0234 14.1719 18.3398 13.75H20.0625C20.3438 13.75 20.625 13.5039 20.625 13.1875V8.6875C20.625 8.40625 20.3438 8.125 20.0625 8.125ZM15.5625 10.375C15.2461 10.375 15 10.1289 15 9.8125C15 9.53125 15.2461 9.25 15.5625 9.25C15.8438 9.25 16.125 9.53125 16.125 9.8125C16.125 10.1289 15.8438 10.375 15.5625 10.375ZM9.375 3.625H13.875C14.0508 3.625 14.2266 3.66016 14.4023 3.66016C14.4023 3.66016 14.4375 3.66016 14.4375 3.625C14.4375 1.76172 12.9258 0.25 11.0625 0.25C9.19922 0.25 7.6875 1.76172 7.6875 3.625C7.6875 3.73047 7.6875 3.80078 7.6875 3.87109C8.21484 3.73047 8.77734 3.625 9.375 3.625Z" fill="url(#paint0_linear_33_306)"/>
<defs>
<linearGradient id="paint0_linear_33_306" x1="3.1997" y1="1.00001" x2="21.151" y2="1.7619" gradientUnits="userSpaceOnUse">
<stop stop-color="#F8A170"/>
<stop offset="1" stop-color="#FFCD61"/>
</linearGradient>
</defs>
</svg>
