<svg width="17" height="19" viewBox="0 0 17 19" fill="none" xmlns="http://www.w3.org/2000/svg">
<path d="M16.6211 11.3594L15.1094 10.5156C15.2852 9.67188 15.2852 8.86328 15.1094 8.01953L16.6211 7.17578C16.7969 7.07031 16.8672 6.85938 16.7969 6.68359C16.4102 5.41797 15.7422 4.29297 14.8984 3.34375C14.7578 3.20312 14.5469 3.16797 14.3711 3.27344L12.8594 4.11719C12.2266 3.58984 11.5234 3.16797 10.75 2.88672V1.16406C10.75 0.988281 10.6094 0.8125 10.3984 0.777344C9.09766 0.460938 7.79688 0.496094 6.56641 0.777344C6.35547 0.8125 6.25 0.988281 6.25 1.16406V2.88672C5.44141 3.16797 4.73828 3.58984 4.10547 4.15234L2.59375 3.27344C2.41797 3.16797 2.20703 3.20312 2.06641 3.34375C1.22266 4.29297 0.554688 5.41797 0.167969 6.68359C0.0976562 6.85938 0.167969 7.07031 0.34375 7.17578L1.85547 8.01953C1.71484 8.86328 1.71484 9.67188 1.85547 10.5156L0.34375 11.3594C0.167969 11.4648 0.0976562 11.6758 0.167969 11.8516C0.554688 13.1172 1.22266 14.2422 2.06641 15.1914C2.20703 15.332 2.41797 15.3672 2.59375 15.2617L4.10547 14.418C4.73828 14.9453 5.44141 15.3672 6.25 15.6484V17.3711C6.25 17.5469 6.39062 17.7227 6.56641 17.793C7.86719 18.0742 9.16797 18.0391 10.3984 17.793C10.6094 17.7227 10.75 17.5469 10.75 17.3711V15.6484C11.5234 15.3672 12.2266 14.9453 12.8594 14.418L14.3711 15.2617C14.5469 15.3672 14.7578 15.332 14.8984 15.1914C15.7773 14.2422 16.4102 13.1172 16.832 11.8516C16.8672 11.6758 16.7969 11.4648 16.6211 11.3594ZM8.5 12.0625C6.91797 12.0625 5.6875 10.832 5.6875 9.25C5.6875 7.70312 6.91797 6.4375 8.5 6.4375C10.0469 6.4375 11.3125 7.70312 11.3125 9.25C11.3125 10.832 10.0469 12.0625 8.5 12.0625Z" fill="url(#paint0_linear_33_307)"/>
<defs>
<linearGradient id="paint0_linear_33_307" x1="1.1997" y1="1.00001" x2="19.151" y2="1.7619" gradientUnits="userSpaceOnUse">
<stop stop-color="#F8A170"/>
<stop offset="1" stop-color="#FFCD61"/>
</linearGradient>
</defs>
</svg>
